<svg xmlns="http://www.w3.org/2000/svg" xmlns:xlink="http://www.w3.org/1999/xlink" contentStyleType="text/css" data-diagram-type="CLASS" height="669px" preserveAspectRatio="none" style="width:700px;height:669px;background:#FFFFFF;" version="1.1" viewBox="0 0 700 669" width="700px" zoomAndPan="magnify"><defs/><g><!--class DEMFile--><g id="elem_DEMFile"><rect codeLine="3" fill="#F1F1F1" height="129.4844" id="DEMFile" rx="2.5" ry="2.5" style="stroke:#181818;stroke-width:0.5;" width="220.6328" x="10" y="7"/><ellipse cx="87.9912" cy="23" fill="#ADD1B2" rx="11" ry="11" style="stroke:#181818;stroke-width:1;"/><path d="M90.96,28.6406 Q90.3818,28.9375 89.7412,29.0781 Q89.1006,29.2344 88.3975,29.2344 Q85.8975,29.2344 84.5693,27.5938 Q83.2568,25.9375 83.2568,22.8125 Q83.2568,19.6875 84.5693,18.0313 Q85.8975,16.375 88.3975,16.375 Q89.1006,16.375 89.7412,16.5313 Q90.3975,16.6875 90.96,16.9844 L90.96,19.7031 Q90.335,19.125 89.7412,18.8594 Q89.1475,18.5781 88.5225,18.5781 Q87.1787,18.5781 86.4912,19.6563 Q85.8037,20.7188 85.8037,22.8125 Q85.8037,24.9063 86.4912,25.9844 Q87.1787,27.0469 88.5225,27.0469 Q89.1475,27.0469 89.7412,26.7813 Q90.335,26.5 90.96,25.9219 L90.96,28.6406 Z " fill="#000000"/><text fill="#000000" font-family="sans-serif" font-size="14" lengthAdjust="spacing" textLength="56.1504" x="108.4912" y="27.8467">DEMFile</text><line style="stroke:#181818;stroke-width:0.5;" x1="11" x2="229.6328" y1="39" y2="39"/><text fill="#000000" font-family="sans-serif" font-size="14" lengthAdjust="spacing" textLength="99.9961" x="16" y="55.9951">+file: FileField</text><text fill="#000000" font-family="sans-serif" font-size="14" lengthAdjust="spacing" textLength="208.6328" x="16" y="72.292">+uploaded_at: DateTimeField</text><text fill="#000000" font-family="sans-serif" font-size="14" lengthAdjust="spacing" textLength="182.5264" x="16" y="88.5889">+processed: BooleanField</text><text fill="#000000" font-family="sans-serif" font-size="14" lengthAdjust="spacing" textLength="174.0703" x="16" y="104.8857">+corrected_file: FileField</text><text fill="#000000" font-family="sans-serif" font-size="14" lengthAdjust="spacing" textLength="201.6396" x="16" y="121.1826">+accumulation_file: FileField</text><line style="stroke:#181818;stroke-width:0.5;" x1="11" x2="229.6328" y1="128.4844" y2="128.4844"/></g><!--class FloodZone--><g id="elem_FloodZone"><rect codeLine="11" fill="#F1F1F1" height="162.0781" id="FloodZone" rx="2.5" ry="2.5" style="stroke:#181818;stroke-width:0.5;" width="275.2793" x="7" y="213"/><ellipse cx="103.5884" cy="229" fill="#ADD1B2" rx="11" ry="11" style="stroke:#181818;stroke-width:1;"/><path d="M106.5571,234.6406 Q105.979,234.9375 105.3384,235.0781 Q104.6978,235.2344 103.9946,235.2344 Q101.4946,235.2344 100.1665,233.5938 Q98.854,231.9375 98.854,228.8125 Q98.854,225.6875 100.1665,224.0313 Q101.4946,222.375 103.9946,222.375 Q104.6978,222.375 105.3384,222.5313 Q105.9946,222.6875 106.5571,222.9844 L106.5571,225.7031 Q105.9321,225.125 105.3384,224.8594 Q104.7446,224.5781 104.1196,224.5781 Q102.7759,224.5781 102.0884,225.6563 Q101.4009,226.7188 101.4009,228.8125 Q101.4009,230.9063 102.0884,231.9844 Q102.7759,233.0469 104.1196,233.0469 Q104.7446,233.0469 105.3384,232.7813 Q105.9321,232.5 106.5571,231.9219 L106.5571,234.6406 Z " fill="#000000"/><text fill="#000000" font-family="sans-serif" font-size="14" lengthAdjust="spacing" textLength="73.6025" x="124.0884" y="233.8467">FloodZone</text><line style="stroke:#181818;stroke-width:0.5;" x1="8" x2="281.2793" y1="245" y2="245"/><text fill="#000000" font-family="sans-serif" font-size="14" lengthAdjust="spacing" textLength="126.916" x="13" y="261.9951">+name: CharField</text><text fill="#000000" font-family="sans-serif" font-size="14" lengthAdjust="spacing" textLength="163.0098" x="13" y="278.292">+description: TextField</text><text fill="#000000" font-family="sans-serif" font-size="14" lengthAdjust="spacing" textLength="177.584" x="13" y="294.5889">+geometry: PolygonField</text><text fill="#000000" font-family="sans-serif" font-size="14" lengthAdjust="spacing" textLength="263.2793" x="13" y="310.8857">+risk_level: PositiveSmallIntegerField</text><text fill="#000000" font-family="sans-serif" font-size="14" lengthAdjust="spacing" textLength="197.0869" x="13" y="327.1826">+created_at: DateTimeField</text><text fill="#000000" font-family="sans-serif" font-size="14" lengthAdjust="spacing" textLength="201.667" x="13" y="343.4795">+updated_at: DateTimeField</text><text fill="#000000" font-family="sans-serif" font-size="14" lengthAdjust="spacing" textLength="130.6143" x="13" y="359.7764">+created_by: User</text><line style="stroke:#181818;stroke-width:0.5;" x1="8" x2="281.2793" y1="367.0781" y2="367.0781"/></g><!--class FloodEvent--><g id="elem_FloodEvent"><rect codeLine="21" fill="#F1F1F1" height="210.9688" id="FloodEvent" rx="2.5" ry="2.5" style="stroke:#181818;stroke-width:0.5;" width="223.8047" x="136.5" y="452"/><ellipse cx="205.1191" cy="468" fill="#ADD1B2" rx="11" ry="11" style="stroke:#181818;stroke-width:1;"/><path d="M208.0879,473.6406 Q207.5098,473.9375 206.8691,474.0781 Q206.2285,474.2344 205.5254,474.2344 Q203.0254,474.2344 201.6973,472.5938 Q200.3848,470.9375 200.3848,467.8125 Q200.3848,464.6875 201.6973,463.0313 Q203.0254,461.375 205.5254,461.375 Q206.2285,461.375 206.8691,461.5313 Q207.5254,461.6875 208.0879,461.9844 L208.0879,464.7031 Q207.4629,464.125 206.8691,463.8594 Q206.2754,463.5781 205.6504,463.5781 Q204.3066,463.5781 203.6191,464.6563 Q202.9316,465.7188 202.9316,467.8125 Q202.9316,469.9063 203.6191,470.9844 Q204.3066,472.0469 205.6504,472.0469 Q206.2754,472.0469 206.8691,471.7813 Q207.4629,471.5 208.0879,470.9219 L208.0879,473.6406 Z " fill="#000000"/><text fill="#000000" font-family="sans-serif" font-size="14" lengthAdjust="spacing" textLength="78.0664" x="225.6191" y="472.8467">FloodEvent</text><line style="stroke:#181818;stroke-width:0.5;" x1="137.5" x2="359.3047" y1="484" y2="484"/><text fill="#000000" font-family="sans-serif" font-size="14" lengthAdjust="spacing" textLength="114.584" x="142.5" y="500.9951">+title: CharField</text><text fill="#000000" font-family="sans-serif" font-size="14" lengthAdjust="spacing" textLength="163.0098" x="142.5" y="517.292">+description: TextField</text><text fill="#000000" font-family="sans-serif" font-size="14" lengthAdjust="spacing" textLength="211.8047" x="142.5" y="533.5889">+geometry: MultiPolygonField</text><text fill="#000000" font-family="sans-serif" font-size="14" lengthAdjust="spacing" textLength="201.8652" x="142.5" y="549.8857">+event_start: DateTimeField</text><text fill="#000000" font-family="sans-serif" font-size="14" lengthAdjust="spacing" textLength="195.6309" x="142.5" y="566.1826">+event_end: DateTimeField</text><text fill="#000000" font-family="sans-serif" font-size="14" lengthAdjust="spacing" textLength="191.4951" x="142.5" y="582.4795">+water_level: DecimalField</text><text fill="#000000" font-family="sans-serif" font-size="14" lengthAdjust="spacing" textLength="134.0117" x="142.5" y="598.7764">+source: CharField</text><text fill="#000000" font-family="sans-serif" font-size="14" lengthAdjust="spacing" textLength="186.0264" x="142.5" y="615.0732">+is_forecast: BooleanField</text><text fill="#000000" font-family="sans-serif" font-size="14" lengthAdjust="spacing" textLength="197.0869" x="142.5" y="631.3701">+created_at: DateTimeField</text><text fill="#000000" font-family="sans-serif" font-size="14" lengthAdjust="spacing" textLength="130.6143" x="142.5" y="647.667">+created_by: User</text><line style="stroke:#181818;stroke-width:0.5;" x1="137.5" x2="359.3047" y1="654.9688" y2="654.9688"/></g><!--class MeasurementPoint--><g id="elem_MeasurementPoint"><rect codeLine="34" fill="#F1F1F1" height="129.4844" id="MeasurementPoint" rx="2.5" ry="2.5" style="stroke:#181818;stroke-width:0.5;" width="209.0869" x="484" y="7"/><ellipse cx="519.4328" cy="23" fill="#ADD1B2" rx="11" ry="11" style="stroke:#181818;stroke-width:1;"/><path d="M522.4016,28.6406 Q521.8234,28.9375 521.1828,29.0781 Q520.5422,29.2344 519.8391,29.2344 Q517.3391,29.2344 516.0109,27.5938 Q514.6984,25.9375 514.6984,22.8125 Q514.6984,19.6875 516.0109,18.0313 Q517.3391,16.375 519.8391,16.375 Q520.5422,16.375 521.1828,16.5313 Q521.8391,16.6875 522.4016,16.9844 L522.4016,19.7031 Q521.7766,19.125 521.1828,18.8594 Q520.5891,18.5781 519.9641,18.5781 Q518.6203,18.5781 517.9328,19.6563 Q517.2453,20.7188 517.2453,22.8125 Q517.2453,24.9063 517.9328,25.9844 Q518.6203,27.0469 519.9641,27.0469 Q520.5891,27.0469 521.1828,26.7813 Q521.7766,26.5 522.4016,25.9219 L522.4016,28.6406 Z " fill="#000000"/><text fill="#000000" font-family="sans-serif" font-size="14" lengthAdjust="spacing" textLength="131.6807" x="537.9734" y="27.8467">MeasurementPoint</text><line style="stroke:#181818;stroke-width:0.5;" x1="485" x2="692.0869" y1="39" y2="39"/><text fill="#000000" font-family="sans-serif" font-size="14" lengthAdjust="spacing" textLength="126.916" x="490" y="55.9951">+name: CharField</text><text fill="#000000" font-family="sans-serif" font-size="14" lengthAdjust="spacing" textLength="120.9756" x="490" y="72.292">+code: CharField</text><text fill="#000000" font-family="sans-serif" font-size="14" lengthAdjust="spacing" textLength="145.0381" x="490" y="88.5889">+location: PointField</text><text fill="#000000" font-family="sans-serif" font-size="14" lengthAdjust="spacing" textLength="163.0098" x="490" y="104.8857">+description: TextField</text><text fill="#000000" font-family="sans-serif" font-size="14" lengthAdjust="spacing" textLength="197.0869" x="490" y="121.1826">+created_at: DateTimeField</text><line style="stroke:#181818;stroke-width:0.5;" x1="485" x2="692.0869" y1="128.4844" y2="128.4844"/></g><!--class WaterLevelMeasurement--><g id="elem_WaterLevelMeasurement"><rect codeLine="42" fill="#F1F1F1" height="96.8906" id="WaterLevelMeasurement" rx="2.5" ry="2.5" style="stroke:#181818;stroke-width:0.5;" width="209.9004" x="483.5" y="245.5"/><ellipse cx="499.3991" cy="261.5" fill="#ADD1B2" rx="11" ry="11" style="stroke:#181818;stroke-width:1;"/><path d="M502.3679,267.1406 Q501.7897,267.4375 501.1491,267.5781 Q500.5085,267.7344 499.8054,267.7344 Q497.3054,267.7344 495.9772,266.0938 Q494.6647,264.4375 494.6647,261.3125 Q494.6647,258.1875 495.9772,256.5313 Q497.3054,254.875 499.8054,254.875 Q500.5085,254.875 501.1491,255.0313 Q501.8054,255.1875 502.3679,255.4844 L502.3679,258.2031 Q501.7429,257.625 501.1491,257.3594 Q500.5554,257.0781 499.9304,257.0781 Q498.5866,257.0781 497.8991,258.1563 Q497.2116,259.2188 497.2116,261.3125 Q497.2116,263.4063 497.8991,264.4844 Q498.5866,265.5469 499.9304,265.5469 Q500.5554,265.5469 501.1491,265.2813 Q501.7429,265 502.3679,264.4219 L502.3679,267.1406 Z " fill="#000000"/><text fill="#000000" font-family="sans-serif" font-size="14" lengthAdjust="spacing" textLength="175.9023" x="513.5989" y="266.3467">WaterLevelMeasurement</text><line style="stroke:#181818;stroke-width:0.5;" x1="484.5" x2="692.4004" y1="277.5" y2="277.5"/><text fill="#000000" font-family="sans-serif" font-size="14" lengthAdjust="spacing" textLength="197.9004" x="489.5" y="294.4951">+timestamp: DateTimeField</text><text fill="#000000" font-family="sans-serif" font-size="14" lengthAdjust="spacing" textLength="149.5566" x="489.5" y="310.792">+value: DecimalField</text><text fill="#000000" font-family="sans-serif" font-size="14" lengthAdjust="spacing" textLength="186.0264" x="489.5" y="327.0889">+is_forecast: BooleanField</text><line style="stroke:#181818;stroke-width:0.5;" x1="484.5" x2="692.4004" y1="334.3906" y2="334.3906"/></g><!--class User--><g id="elem_User"><rect fill="#F1F1F1" height="48" id="User" rx="2.5" ry="2.5" style="stroke:#181818;stroke-width:0.5;" width="63.9102" x="266.5" y="47.5"/><ellipse cx="281.5" cy="63.5" fill="#ADD1B2" rx="11" ry="11" style="stroke:#181818;stroke-width:1;"/><path d="M284.4688,69.1406 Q283.8906,69.4375 283.25,69.5781 Q282.6094,69.7344 281.9063,69.7344 Q279.4063,69.7344 278.0781,68.0938 Q276.7656,66.4375 276.7656,63.3125 Q276.7656,60.1875 278.0781,58.5313 Q279.4063,56.875 281.9063,56.875 Q282.6094,56.875 283.25,57.0313 Q283.9063,57.1875 284.4688,57.4844 L284.4688,60.2031 Q283.8438,59.625 283.25,59.3594 Q282.6563,59.0781 282.0313,59.0781 Q280.6875,59.0781 280,60.1563 Q279.3125,61.2188 279.3125,63.3125 Q279.3125,65.4063 280,66.4844 Q280.6875,67.5469 282.0313,67.5469 Q282.6563,67.5469 283.25,67.2813 Q283.8438,67 284.4688,66.4219 L284.4688,69.1406 Z " fill="#000000"/><text fill="#000000" font-family="sans-serif" font-size="14" lengthAdjust="spacing" textLength="31.9102" x="295.5" y="68.3467">User</text><line style="stroke:#181818;stroke-width:0.5;" x1="267.5" x2="329.4102" y1="79.5" y2="79.5"/><line style="stroke:#181818;stroke-width:0.5;" x1="267.5" x2="329.4102" y1="87.5" y2="87.5"/></g><!--reverse link User to FloodZone--><g id="link_User_FloodZone"><path codeLine="48" d="M278.8738,100.5986 C259.5638,128.2386 229.7,171.02 200.66,212.59 " fill="transparent" id="User-backto-FloodZone" style="stroke:#181818;stroke-width:1;stroke-dasharray:7.0,7.0;"/><polygon fill="#181818" points="282.31,95.68,273.8766,100.767,279.4465,99.7788,280.4347,105.3487,282.31,95.68" style="stroke:#181818;stroke-width:1;"/><text fill="#000000" font-family="sans-serif" font-size="13" lengthAdjust="spacing" textLength="72.249" x="232.5" y="179.0669">created_by</text></g><!--reverse link User to FloodEvent--><g id="link_User_FloodEvent"><path codeLine="49" d="M311.927,101.1283 C337.387,158.1283 392.88,303.76 352.5,422 C349.02,432.2 344.41,442.22 339.08,451.91 " fill="transparent" id="User-backto-FloodEvent" style="stroke:#181818;stroke-width:1;stroke-dasharray:7.0,7.0;"/><polygon fill="#181818" points="309.48,95.65,309.4983,105.4988,311.5192,100.2153,316.8027,102.2362,309.48,95.65" style="stroke:#181818;stroke-width:1;"/><text fill="#000000" font-family="sans-serif" font-size="13" lengthAdjust="spacing" textLength="72.249" x="367.5" y="298.5669">created_by</text></g><!--reverse link MeasurementPoint to WaterLevelMeasurement--><g id="link_MeasurementPoint_WaterLevelMeasurement"><path codeLine="50" d="M588.5,142.28 C588.5,177.13 588.5,213.56 588.5,245.48 " fill="transparent" id="MeasurementPoint-backto-WaterLevelMeasurement" style="stroke:#181818;stroke-width:1;stroke-dasharray:7.0,7.0;"/><polygon fill="#181818" points="588.5,136.28,584.5,145.28,588.5,141.28,592.5,145.28,588.5,136.28" style="stroke:#181818;stroke-width:1;"/><text fill="#000000" font-family="sans-serif" font-size="13" lengthAdjust="spacing" textLength="33.1538" x="589.5" y="179.0669">point</text><text fill="#000000" font-family="sans-serif" font-size="13" lengthAdjust="spacing" textLength="8.271" x="580.0481" y="156.6839">1</text><text fill="#000000" font-family="sans-serif" font-size="13" lengthAdjust="spacing" textLength="6.5" x="582.1034" y="234.3367">*</text></g><!--reverse link FloodZone to FloodEvent--><g id="link_FloodZone_FloodEvent"><path codeLine="52" d="M114.0833,381.2121 C112.0733,397.0221 113.59,407.3 119.5,422 C123.91,432.96 129.68,443.52 136.34,453.59 " fill="transparent" id="FloodZone-backto-FloodEvent" style="stroke:#181818;stroke-width:1;stroke-dasharray:7.0,7.0;"/><polygon fill="#181818" points="114.84,375.26,109.7369,383.6837,114.2094,380.2201,117.673,384.6926,114.84,375.26" style="stroke:#181818;stroke-width:1;"/><text fill="#000000" font-family="sans-serif" font-size="13" lengthAdjust="spacing" textLength="227.7539" x="120.5" y="418.0669">(&#1075;&#1077;&#1086;&#1084;&#1077;&#1090;&#1088;&#1080;&#1103; &#1084;&#1086;&#1078;&#1077;&#1090; &#1073;&#1099;&#1090;&#1100; &#1089;&#1074;&#1103;&#1079;&#1072;&#1085;&#1072;)</text></g><!--SRC=[dPBDQXH14CVlynJDdlo0eDV1YxfP2BWGI4JmibIwAvictLr3Vwn64TIhGbub6g8UJ9wXvutitdLcukoCYBVk-dTL_UjNxKwbgS22Pbo1Su-zj_8eUDpZP0xa6sGFYcAjiEdkV2OLihS5O_UFqwba-JwJg4GEXKeH21GBy2MRWiT3gJkriiJHEHGbUqAa44mhSR8MkK-P0rM1yw230Y_9REdl6cypHIHUaldjpe1ExvwUW6th27JSoYgNATaXllQjiaJIwErPoVP9dIsfCsQbErqeNA7AcfDUhl10Wr9xnkCIk-BS8lYnoKCbniKcyoYrV-xGzaRQNQ7ncvcyzEf_Xfe7vML_Cinr5yw37JArKT680UrL2jW6oXIvJ3nQqL6ml6zIkiKnfGM3ymEx_nkvSJXp11SiwkHpdsI3Q63jd4G_f8Z3XjWwzHzWZfji3Rt8M9vbAhUiDOlJc4ZhQc325QY0snp7aQM6cGHxjBDpwzENh4FLqpS_w8y7M_0c3oVhXCczoSWW9QloowBeUcvrk1ClurMyYJ_ZLVsnVXz_rESiNMxYjnnWyKlzASK_i_f3_5gVn-_n8bx7Yxk_0000]--></g></svg>