<?xml version="1.0" encoding="UTF-8" standalone="no"?>
<!DOCTYPE svg PUBLIC "-//W3C//DTD SVG 1.1//EN"
 "http://www.w3.org/Graphics/SVG/1.1/DTD/svg11.dtd">
<!-- Generated by graphviz version 2.43.0 (0)
 -->
<!-- Title: %3 Pages: 1 -->
<svg width="438pt" height="694pt"
 viewBox="0.00 0.00 437.50 694.00" xmlns="http://www.w3.org/2000/svg" xmlns:xlink="http://www.w3.org/1999/xlink">
<g id="graph0" class="graph" transform="scale(1 1) rotate(0) translate(4 690)">
<title>%3</title>
<polygon fill="white" stroke="transparent" points="-4,4 -4,-690 433.5,-690 433.5,4 -4,4"/>
<!-- start -->
<g id="node1" class="node">
<title>start</title>
<ellipse fill="none" stroke="black" cx="196" cy="-668" rx="46.29" ry="18"/>
<text text-anchor="middle" x="196" y="-664.3" font-family="Times,serif" font-size="14.00">Начало</text>
</g>
<!-- load_dem -->
<g id="node2" class="node">
<title>load_dem</title>
<polygon fill="none" stroke="black" points="182.5,-614 7.5,-614 7.5,-578 182.5,-578 182.5,-614"/>
<text text-anchor="middle" x="95" y="-592.3" font-family="Times,serif" font-size="14.00">Загрузка DEM (ЦМР)</text>
</g>
<!-- start&#45;&gt;load_dem -->
<g id="edge1" class="edge">
<title>start&#45;&gt;load_dem</title>
<path fill="none" stroke="black" d="M174.08,-651.81C160.7,-642.53 143.32,-630.49 128.26,-620.05"/>
<polygon fill="black" stroke="black" points="129.92,-616.95 119.71,-614.13 125.94,-622.7 129.92,-616.95"/>
</g>
<!-- load_dzz -->
<g id="node3" class="node">
<title>load_dzz</title>
<polygon fill="none" stroke="black" points="400,-614 206,-614 206,-578 400,-578 400,-614"/>
<text text-anchor="middle" x="303" y="-592.3" font-family="Times,serif" font-size="14.00">Загрузка снимков (ДЗЗ)</text>
</g>
<!-- start&#45;&gt;load_dzz -->
<g id="edge2" class="edge">
<title>start&#45;&gt;load_dzz</title>
<path fill="none" stroke="black" d="M218.69,-652.15C233.08,-642.74 251.98,-630.38 268.24,-619.74"/>
<polygon fill="black" stroke="black" points="270.5,-622.44 276.95,-614.04 266.67,-616.59 270.5,-622.44"/>
</g>
<!-- pre_dem -->
<g id="node4" class="node">
<title>pre_dem</title>
<polygon fill="none" stroke="black" points="170,-542 0,-542 0,-506 170,-506 170,-542"/>
<text text-anchor="middle" x="85" y="-520.3" font-family="Times,serif" font-size="14.00">Препроцессинг DEM</text>
</g>
<!-- load_dem&#45;&gt;pre_dem -->
<g id="edge3" class="edge">
<title>load_dem&#45;&gt;pre_dem</title>
<path fill="none" stroke="black" d="M92.53,-577.7C91.43,-569.98 90.1,-560.71 88.87,-552.11"/>
<polygon fill="black" stroke="black" points="92.32,-551.51 87.44,-542.1 85.39,-552.5 92.32,-551.51"/>
</g>
<!-- pre_dzz -->
<g id="node5" class="node">
<title>pre_dzz</title>
<polygon fill="none" stroke="black" points="429.5,-542 188.5,-542 188.5,-506 429.5,-506 429.5,-542"/>
<text text-anchor="middle" x="309" y="-520.3" font-family="Times,serif" font-size="14.00">Препроцессинг снимков (ДЗЗ)</text>
</g>
<!-- load_dzz&#45;&gt;pre_dzz -->
<g id="edge4" class="edge">
<title>load_dzz&#45;&gt;pre_dzz</title>
<path fill="none" stroke="black" d="M304.48,-577.7C305.14,-569.98 305.94,-560.71 306.68,-552.11"/>
<polygon fill="black" stroke="black" points="310.17,-552.37 307.53,-542.1 303.19,-551.77 310.17,-552.37"/>
</g>
<!-- align -->
<g id="node6" class="node">
<title>align</title>
<polygon fill="none" stroke="black" points="348.5,-470 113.5,-470 113.5,-434 348.5,-434 348.5,-470"/>
<text text-anchor="middle" x="231" y="-448.3" font-family="Times,serif" font-size="14.00">Геопривязка и выравнивание</text>
</g>
<!-- pre_dem&#45;&gt;align -->
<g id="edge5" class="edge">
<title>pre_dem&#45;&gt;align</title>
<path fill="none" stroke="black" d="M120.72,-505.88C140.5,-496.39 165.27,-484.51 186.33,-474.42"/>
<polygon fill="black" stroke="black" points="187.9,-477.55 195.4,-470.07 184.87,-471.24 187.9,-477.55"/>
</g>
<!-- compare -->
<g id="node8" class="node">
<title>compare</title>
<polygon fill="none" stroke="black" points="156,-324 19.09,-306 156,-288 292.91,-306 156,-324"/>
<text text-anchor="middle" x="156" y="-302.3" font-family="Times,serif" font-size="14.00">Сравнение с DEM</text>
</g>
<!-- pre_dem&#45;&gt;compare -->
<g id="edge9" class="edge">
<title>pre_dem&#45;&gt;compare</title>
<path fill="none" stroke="black" d="M83.84,-505.85C82.47,-475.05 82.8,-409 106,-360 111.58,-348.21 120.78,-337.32 129.78,-328.51"/>
<polygon fill="black" stroke="black" points="132.24,-331 137.2,-321.64 127.49,-325.86 132.24,-331"/>
</g>
<!-- pre_dzz&#45;&gt;align -->
<g id="edge6" class="edge">
<title>pre_dzz&#45;&gt;align</title>
<path fill="none" stroke="black" d="M289.72,-505.7C280.08,-497.05 268.27,-486.45 257.77,-477.03"/>
<polygon fill="black" stroke="black" points="259.84,-474.18 250.06,-470.1 255.16,-479.39 259.84,-474.18"/>
</g>
<!-- extract_water -->
<g id="node7" class="node">
<title>extract_water</title>
<polygon fill="none" stroke="black" points="342.5,-398 115.5,-398 115.5,-360 342.5,-360 342.5,-398"/>
<text text-anchor="middle" x="229" y="-382.8" font-family="Times,serif" font-size="14.00">Извлечение признаков воды</text>
<text text-anchor="middle" x="229" y="-367.8" font-family="Times,serif" font-size="14.00">из снимков</text>
</g>
<!-- align&#45;&gt;extract_water -->
<g id="edge7" class="edge">
<title>align&#45;&gt;extract_water</title>
<path fill="none" stroke="black" d="M230.52,-433.81C230.3,-426.11 230.04,-416.82 229.79,-408.15"/>
<polygon fill="black" stroke="black" points="233.29,-407.92 229.51,-398.02 226.29,-408.11 233.29,-407.92"/>
</g>
<!-- extract_water&#45;&gt;compare -->
<g id="edge8" class="edge">
<title>extract_water&#45;&gt;compare</title>
<path fill="none" stroke="black" d="M210.2,-359.72C200.64,-350.42 188.94,-339.04 178.86,-329.24"/>
<polygon fill="black" stroke="black" points="181.14,-326.57 171.53,-322.11 176.26,-331.59 181.14,-326.57"/>
</g>
<!-- flood_zone -->
<g id="node9" class="node">
<title>flood_zone</title>
<polygon fill="none" stroke="black" points="265,-252 47,-252 47,-216 265,-216 265,-252"/>
<text text-anchor="middle" x="156" y="-230.3" font-family="Times,serif" font-size="14.00">Выявление зон затопления</text>
</g>
<!-- compare&#45;&gt;flood_zone -->
<g id="edge10" class="edge">
<title>compare&#45;&gt;flood_zone</title>
<path fill="none" stroke="black" d="M156,-287.7C156,-279.98 156,-270.71 156,-262.11"/>
<polygon fill="black" stroke="black" points="159.5,-262.1 156,-252.1 152.5,-262.1 159.5,-262.1"/>
</g>
<!-- generate_layer -->
<g id="node10" class="node">
<title>generate_layer</title>
<polygon fill="none" stroke="black" points="267.5,-180 44.5,-180 44.5,-144 267.5,-144 267.5,-180"/>
<text text-anchor="middle" x="156" y="-158.3" font-family="Times,serif" font-size="14.00">Генерация слоя затопления</text>
</g>
<!-- flood_zone&#45;&gt;generate_layer -->
<g id="edge11" class="edge">
<title>flood_zone&#45;&gt;generate_layer</title>
<path fill="none" stroke="black" d="M156,-215.7C156,-207.98 156,-198.71 156,-190.11"/>
<polygon fill="black" stroke="black" points="159.5,-190.1 156,-180.1 152.5,-190.1 159.5,-190.1"/>
</g>
<!-- output -->
<g id="node11" class="node">
<title>output</title>
<polygon fill="none" stroke="black" points="239,-108 73,-108 73,-72 239,-72 239,-108"/>
<text text-anchor="middle" x="156" y="-86.3" font-family="Times,serif" font-size="14.00">Передача в веб&#45;ГИС</text>
</g>
<!-- generate_layer&#45;&gt;output -->
<g id="edge12" class="edge">
<title>generate_layer&#45;&gt;output</title>
<path fill="none" stroke="black" d="M156,-143.7C156,-135.98 156,-126.71 156,-118.11"/>
<polygon fill="black" stroke="black" points="159.5,-118.1 156,-108.1 152.5,-118.1 159.5,-118.1"/>
</g>
<!-- end -->
<g id="node12" class="node">
<title>end</title>
<ellipse fill="none" stroke="black" cx="156" cy="-18" rx="40.09" ry="18"/>
<text text-anchor="middle" x="156" y="-14.3" font-family="Times,serif" font-size="14.00">Конец</text>
</g>
<!-- output&#45;&gt;end -->
<g id="edge13" class="edge">
<title>output&#45;&gt;end</title>
<path fill="none" stroke="black" d="M156,-71.7C156,-63.98 156,-54.71 156,-46.11"/>
<polygon fill="black" stroke="black" points="159.5,-46.1 156,-36.1 152.5,-46.1 159.5,-46.1"/>
</g>
</g>
</svg>
